HIERARCHY
ROOT hips
{
  OFFSET 0 10.6860622 2.3727825e-15
  CHANNELS 6 Xposition Yposition Zposition Yrotation Xrotation Zrotation
  JOINT leftUpperLeg
  {
    OFFSET 0.6642549969 -0.9402397400000004 0
    CHANNELS 3 Yrotation Xrotation Zrotation
    JOINT leftLowerLeg
    {
      OFFSET 0 -3.997221335632195 0
      CHANNELS 3 Yrotation Xrotation Zrotation
      JOINT leftFoot
      {
        OFFSET -0.13777839790000004 -4.6145792000000005 -0.22186036399999998
        CHANNELS 3 Yrotation Xrotation Zrotation
        JOINT leftToes
        {
          OFFSET -0.03777410834999995 -0.9130806927000008 0.85230013
          CHANNELS 3 Yrotation Xrotation Zrotation
          End Site
          {
            OFFSET -0.03777410834999995 -0.9130806927000008 0.85230013
          }
        }
      }
    }
  }
  JOINT rightUpperLeg
  {
    OFFSET -0.6642778626 -0.9402397400000004 0
    CHANNELS 3 Yrotation Xrotation Zrotation
    JOINT rightLowerLeg
    {
      OFFSET 0 -3.997221452859387 0
      CHANNELS 3 Yrotation Xrotation Zrotation
      JOINT rightFoot
      {
        OFFSET 0.1377926176 -4.6145792000000005 -0.22185782299999995
        CHANNELS 3 Yrotation Xrotation Zrotation
        JOINT rightToes
        {
          OFFSET 0.037780746850000047 -0.9130806927000008 0.85230167
          CHANNELS 3 Yrotation Xrotation Zrotation
          End Site
          {
            OFFSET 0.037780746850000047 -0.9130806927000008 0.85230167
          }
        }
      }
    }
  }
  JOINT spine
  {
    OFFSET 0 0.13988381660000015 0
    CHANNELS 3 Yrotation Xrotation Zrotation
    JOINT chest
    {
      OFFSET 0 0.6191039003973773 0
      CHANNELS 3 Yrotation Xrotation Zrotation
      JOINT upperChest
      {
        OFFSET 0 0.9855186130586943 0
        CHANNELS 3 Yrotation Xrotation Zrotation
        JOINT leftShoulder
        {
          OFFSET 0.1807663869 1.5087829790000005 0
          CHANNELS 3 Yrotation Xrotation Zrotation
          JOINT leftUpperArm
          {
            OFFSET 0.5985063006419806 0 0
            CHANNELS 3 Yrotation Xrotation Zrotation
            JOINT leftLowerArm
            {
              OFFSET 2.2993332369501065 0 0
              CHANNELS 3 Yrotation Xrotation Zrotation
              JOINT leftHand
              {
                OFFSET 2.395047042602395 0 0
                CHANNELS 3 Yrotation Xrotation Zrotation
                JOINT leftIndexProximal
                {
                  OFFSET 0.5766295810000004 0.04556643899499946 0.17265095988184
                  CHANNELS 3 Yrotation Xrotation Zrotation
                  JOINT leftIndexIntermediate
                  {
                    OFFSET 0.2957229000000008 -0.019352197700001517 -0.007932640616999987
                    CHANNELS 3 Yrotation Xrotation Zrotation
                    JOINT leftIndexDistal
                    {
                      OFFSET 0.19008243099999922 -0.012484908149998475 -0.002786250786000012
                      CHANNELS 3 Yrotation Xrotation Zrotation
                      End Site
                      {
                        OFFSET 0.19008243099999922 -0.012484908149998475 -0.002786250786000012
                      }
                    }
                  }
                }
                JOINT leftMiddleProximal
                {
                  OFFSET 0.5834975091000001 0.0524350405149987 0.02204081888183999
                  CHANNELS 3 Yrotation Xrotation Zrotation
                  JOINT leftMiddleIntermediate
                  {
                    OFFSET 0.33880573540000003 -0.019871473270000717 -0.00000971183179999946
                    CHANNELS 3 Yrotation Xrotation Zrotation
                    JOINT leftMiddleDistal
                    {
                      OFFSET 0.20676022730000088 -0.012221336379999448 0.0001471936708000235
                      CHANNELS 3 Yrotation Xrotation Zrotation
                      End Site
                      {
                        OFFSET 0.20676022730000088 -0.012221336379999448 0.0001471936708000235
                      }
                    }
                  }
                }
                JOINT leftLittleProximal
                {
                  OFFSET 0.5344154683999995 -0.012880921405001189 -0.24414037221816004
                  CHANNELS 3 Yrotation Xrotation Zrotation
                  JOINT leftLittleIntermediate
                  {
                    OFFSET 0.21758961730000093 -0.011650919939999227 0.011893592810000034
                    CHANNELS 3 Yrotation Xrotation Zrotation
                    JOINT leftLittleDistal
                    {
                      OFFSET 0.1475273964999999 -0.008152365682999818 0.006001092492999946
                      CHANNELS 3 Yrotation Xrotation Zrotation
                      End Site
                      {
                        OFFSET 0.1475273964999999 -0.008152365682999818 0.006001092492999946
                      }
                    }
                  }
                }
                JOINT leftRingProximal
                {
                  OFFSET 0.5799399463000003 0.026911854694997794 -0.12150566991816003
                  CHANNELS 3 Yrotation Xrotation Zrotation
                  JOINT leftRingIntermediate
                  {
                    OFFSET 0.26167887460000006 -0.013480186499999602 0.010996293000000053
                    CHANNELS 3 Yrotation Xrotation Zrotation
                    JOINT leftRingDistal
                    {
                      OFFSET 0.17667108799999987 -0.008990287899999228 0.0055541023999999065
                      CHANNELS 3 Yrotation Xrotation Zrotation
                      End Site
                      {
                        OFFSET 0.17667108799999987 -0.008990287899999228 0.0055541023999999065
                      }
                    }
                  }
                }
                JOINT leftThumbProximal
                {
                  OFFSET 0.11018806699999972 -0.09448718900500053 0.17047963138184
                  CHANNELS 3 Yrotation Xrotation Zrotation
                  JOINT leftThumbIntermediate
                  {
                    OFFSET 0.31062601459999983 -0.08126270900000132 0.15443142000000007
                    CHANNELS 3 Yrotation Xrotation Zrotation
                    JOINT leftThumbDistal
                    {
                      OFFSET 0.21627175790000086 -0.08833193599999878 0.018771167799999988
                      CHANNELS 3 Yrotation Xrotation Zrotation
                      End Site
                      {
                        OFFSET 0.21627175790000086 -0.08833193599999878 0.018771167799999988
                      }
                    }
                  }
                }
              }
            }
          }
        }
        JOINT neck
        {
          OFFSET 0 1.5463305265074576 0
          CHANNELS 3 Yrotation Xrotation Zrotation
          JOINT head
          {
            OFFSET 0 0.8456443600000344 0
            CHANNELS 3 Yrotation Xrotation Zrotation
            JOINT leftEye
            {
              OFFSET 0.30408573140000006 0.5104519199999995 0.1276382305
              CHANNELS 3 Yrotation Xrotation Zrotation
              End Site
              {
                OFFSET 0.30408573140000006 0.5104519199999995 0.1276382305
              }
            }
            JOINT rightEye
            {
              OFFSET -0.30409491089999996 0.5104519199999995 0.1276379445
              CHANNELS 3 Yrotation Xrotation Zrotation
              End Site
              {
                OFFSET -0.30409491089999996 0.5104519199999995 0.1276379445
              }
            }
            JOINT jaw
            {
              OFFSET -3.155239131000001e-7 -0.11984121820000082 0.60178107
              CHANNELS 3 Yrotation Xrotation Zrotation
              End Site
              {
                OFFSET -3.155239131000001e-7 -0.11984121820000082 0.60178107
              }
            }
          }
        }
        JOINT rightShoulder
        {
          OFFSET -0.1807303465 1.5087829790000005 0
          CHANNELS 3 Yrotation Xrotation Zrotation
          JOINT rightUpperArm
          {
            OFFSET -0.5985063796536958 0 0
            CHANNELS 3 Yrotation Xrotation Zrotation
            JOINT rightLowerArm
            {
              OFFSET -2.2993322059002854 0 0
              CHANNELS 3 Yrotation Xrotation Zrotation
              JOINT rightHand
              {
                OFFSET -2.395045314457259 0 0
                CHANNELS 3 Yrotation Xrotation Zrotation
                JOINT rightIndexProximal
                {
                  OFFSET -0.5764487688300002 0.0441371204405987 0.17361932004999997
                  CHANNELS 3 Yrotation Xrotation Zrotation
                  JOINT rightIndexIntermediate
                  {
                    OFFSET -0.29573011380000047 -0.01934826376999843 -0.007698921482999974
                    CHANNELS 3 Yrotation Xrotation Zrotation
                    JOINT rightIndexDistal
                    {
                      OFFSET -0.19008373999999884 -0.012503266380000655 -0.0026365778999999897
                      CHANNELS 3 Yrotation Xrotation Zrotation
                      End Site
                      {
                        OFFSET -0.19008373999999884 -0.012503266380000655 -0.0026365778999999897
                      }
                    }
                  }
                }
                JOINT rightMiddleProximal
                {
                  OFFSET -0.5834852037300005 0.05211639405060153 0.02307162440000001
                  CHANNELS 3 Yrotation Xrotation Zrotation
                  JOINT rightMiddleIntermediate
                  {
                    OFFSET -0.33880114510000003 -0.019952774050000954 0.0002455003561999819
                    CHANNELS 3 Yrotation Xrotation Zrotation
                    JOINT rightMiddleDistal
                    {
                      OFFSET -0.20675694929999955 -0.012273788999999091 0.00030209124000002766
                      CHANNELS 3 Yrotation Xrotation Zrotation
                      End Site
                      {
                        OFFSET -0.20675694929999955 -0.012273788999999091 0.00030209124000002766
                      }
                    }
                  }
                }
                JOINT rightLittleProximal
                {
                  OFFSET -0.5346811737299992 -0.011214256288399227 -0.24363941305000003
                  CHANNELS 3 Yrotation Xrotation Zrotation
                  JOINT rightLittleIntermediate
                  {
                    OFFSET -0.21757715980000092 -0.011771559690000988 0.01201554387
                    CHANNELS 3 Yrotation Xrotation Zrotation
                    JOINT rightLittleDistal
                    {
                      OFFSET -0.1475201849000004 -0.00822055339600003 0.006082065407000015
                      CHANNELS 3 Yrotation Xrotation Zrotation
                      End Site
                      {
                        OFFSET -0.1475201849000004 -0.00822055339600003 0.006082065407000015
                      }
                    }
                  }
                }
                JOINT rightRingProximal
                {
                  OFFSET -0.5800810755299999 0.027657985680600072 -0.12066365025000003
                  CHANNELS 3 Yrotation Xrotation Zrotation
                  JOINT rightRingIntermediate
                  {
                    OFFSET -0.26166445029999974 -0.013623118409999302 0.011164098990000045
                    CHANNELS 3 Yrotation Xrotation Zrotation
                    JOINT rightRingDistal
                    {
                      OFFSET -0.17666387530000027 -0.009072900100000503 0.005668185599999959
                      CHANNELS 3 Yrotation Xrotation Zrotation
                      End Site
                      {
                        OFFSET -0.17666387530000027 -0.009072900100000503 0.005668185599999959
                      }
                    }
                  }
                }
                JOINT rightThumbProximal
                {
                  OFFSET -0.10997596379000074 -0.09577489355940072 0.16989765924999997
                  CHANNELS 3 Yrotation Xrotation Zrotation
                  JOINT rightThumbIntermediate
                  {
                    OFFSET -0.31036620999999986 -0.08229339117999834 0.15440884469999996
                    CHANNELS 3 Yrotation Xrotation Zrotation
                    JOINT rightThumbDistal
                    {
                      OFFSET -0.21631306399999906 -0.08825326400000111 0.018656797720000014
                      CHANNELS 3 Yrotation Xrotation Zrotation
                      End Site
                      {
                        OFFSET -0.21631306399999906 -0.08825326400000111 0.018656797720000014
                      }
                    }
                  }
                }
              }
            }
          }
        }
      }
    }
  }
}
MOTION
Frames: 4
Frame Time: 0.03333333333333333
-0.03162960335612297 -3.3808959554931644 -0.7884092926979065 1.896099009966604 -15.498828860812175 -7.067301007504526 -34.249868065543374 -54.23468242919945 43.134946668564936 -27.073324595098264 87.76357835136294 -29.997445810998414 5.450207448069848 19.06700204094934 -14.983018427956925 -0.2812600211316499 -27.672195788307885 0.9567141787446514 -9.57120928283546 -56.91010806045945 -0.808634411489976 1.6932599092655671 63.52663152809534 2.779018582928578 -4.210693786010354 8.810595832300423 2.4047444456711484 0.0004214313216726808 0.04846956277202671 -0.0022962613102759876 0.83726555870084 4.202467452986662 2.355759891231682 3.661188153178637 16.648492878893272 8.3126411697693 0 0 0 -11.439795085472406 8.724874154161094 2.1929952828551267 -47.348705597951636 -6.5698974759812465 -48.45654683668751 -74.20527002878737 1.8390936372903133 0.7769528724961818 22.417446196746845 69.96160209453343 -2.177258699641812 -9.285500942817176 -7.192817891702977 5.679216563485548 1.4887164243039812 0.6377570569288606 -21.481527100584934 -1.281281483810888e-10 1.793762613445802e-24 1.6042536111691759e-12 2.0823528499074064 -2.1342533753103394 -12.50475017794114 -2.0194621233227 -0.7529472013465907 -37.104753460857864 1.139979627027678e-10 6.3611093629270335e-15 -1.43444452663829e-12 1.4344677348787136 5.758261760287395 -26.82417918696463 -8.79609277762775 -4.467817295947315 -52.2829217957841 0.000005171787096003275 -0.000002691295807034599 -0.00000456770317490879 5.083493751680476 1.5208580954900743 -25.068069913150115 -3.0632781432367078 -1.6369111251224253 -42.62101907220697 -0.000007395308090260151 -0.000007459581146374227 -0.0000022963152906957437 -1.5509451280974442 -3.2394066232515617 -5.7071477738296 1.3902077346552848 -3.966127779982801 2.732213886978447 -0.000001702556620541409 0.000007672904867303355 -0.0000013851907984277488 14.04050228900105 17.38012778518566 -6.018816171845408 31.026549977575755 18.081010592463933 -1.3291119493244312 0 0 0 0 0 0 0 0 0 6.594703885864639 0.9459401823632693 4.814875545611081 65.02783943279906 0.8728872783744677 47.73797544111855 93.82656890175566 1.4937305097836822 -0.7190839676789664 -9.96699977206795 38.34313061156466 0.4206663566320669 -7.532068468865298 6.241424770591412 25.112586166296854 -0.7486027487427914 0.0316213228631794 12.875234534688316 3.933694872703174e-10 3.1805546814635168e-15 -4.874754472204794e-12 -5.987784746592946 2.965782997229562 42.73312808069336 0.6267575177605236 -0.09319907289207247 11.25555045373445 1.215836204053751e-9 -3.180554491887685e-15 -1.6036856771618462e-11 -17.011035940468766 -5.425100160886138 56.128327269475655 5.558419050353055 -2.3542610802092288 50.58207349104141 1.6628260911929426e-9 -3.1805543023118527e-15 -2.179830267765673e-11 -14.895842531061408 -3.14158050220431 47.10240368243266 1.404588643702339 -0.7706739629888045 34.32687882205998 -4.3803240153668535e-10 2.0219334966109398e-23 5.2894833502657416e-12 -16.709936003203318 -27.567208054395113 32.31546925232144 -12.120863256642984 1.6143124597603007 -7.345980277966458 0.000003847386213757909 -0.0000011525209592598412 0.000004344285950975823
-0.029731441289186478 -3.3816917967102054 -0.788129448890686 1.9937200569340103 -15.476387903270032 -7.167810058714317 -34.37996821393182 -54.26095550993947 43.25013533257427 -27.383046872422447 87.79317915219988 -30.303322545110863 5.4507989588999575 19.01384218237078 -14.917162927639541 -0.27980924215974085 -27.636412565396533 0.9680583679828322 -9.770992338379102 -56.898925299598865 -0.6844551192279137 1.6862932624751599 63.52945088259032 2.772257752781652 -4.208828017442813 8.790750146265284 2.402242825561928 -0.0008119640484842309 0.11239178202641983 0.0008934948972722271 0.8613867635260002 4.175442477356386 2.3615509839169047 3.7479107478464835 16.536152540709384 8.32938942349736 0 0 0 -11.318697016079241 8.703394562235268 1.9493190077493114 -47.56619958328598 -6.508279761384733 -48.16320575034847 -74.05888709971312 1.8510219167284383 0.7659355169588454 21.180839448447845 70.12413375248478 -3.3758744706397574 -9.241723747173621 -7.210554087241693 5.630505567678876 1.4909402618630518 0.6390353955098542 -21.52457310667593 -1.281281483810888e-10 1.793762613445802e-24 1.6042536111691759e-12 2.067103050613435 -2.1437755309923854 -12.57522953868258 -2.018177662301406 -0.7521567522122437 -37.08004835734827 1.139979627027678e-10 6.3611093629270335e-15 -1.43444452663829e-12 1.4202315868164552 5.751190601683744 -26.896137879580756 -8.796618652071983 -4.468602164936299 -52.28755472189159 0.000005171787096003275 -0.000002691295807034599 -0.00000456770317490879 5.087724949633143 1.5231402905521492 -25.10638035689982 -3.0620097325424354 -1.6357014749264405 -42.60528227453069 -0.000007395308090260151 -0.000007459581146374227 -0.0000022963152906957437 -1.521355563124326 -3.2210007559490395 -5.831347832999526 1.3874180681725927 -3.9573620568542656 2.724958577388633 -0.000001702556620541409 0.000007672904867303355 -0.0000013851907984277488 14.040924606231437 17.434097338793432 -6.12140992845218 31.076867936972942 18.141666026865725 -1.3914935497890641 0 0 0 0 0 0 0 0 0 6.696425944098725 0.961763441074689 4.685789755406106 65.29187268535927 0.804833527368078 47.63613648853805 93.47901574192544 1.4694445897842692 -0.7225136681161302 -10.991854239374128 37.7285907884831 -0.6125911869141719 -7.352562035906386 6.17817793166277 25.896850934208185 -0.7479616455799419 0.03140751589846418 12.857472449781293 3.933694872703174e-10 3.1805546814635168e-15 -4.874754472204794e-12 -5.88309485092795 2.896433507391976 43.031428688405846 0.6599703336711508 -0.09966395615288744 11.681959191102967 1.215836204053751e-9 -3.180554491887685e-15 -1.6036856771618462e-11 -16.955994708401846 -5.4396806534470965 56.530658819867206 5.589250519285932 -2.3856703180428713 50.92535519242097 1.6628260911929426e-9 -3.1805543023118527e-15 -2.179830267765673e-11 -14.880876693741346 -3.1175217794170806 47.289944639841245 1.4077340681449082 -0.7727227253175623 34.37509990400247 -4.3803240153668535e-10 2.0219334966109398e-23 5.2894833502657416e-12 -16.907314924539282 -27.514470757835692 32.684802653832335 -12.693241229829018 1.8317247783874462 -7.314585101188713 0.000003847386213757909 -0.0000011525209592598412 0.000004344285950975823
-0.026697425171732903 -3.382345540454102 -0.7876059412956238 2.0675296112660755 -15.439784152639394 -7.235258099759254 -34.511098122600224 -54.297935685344825 43.336844310982826 -27.800401321283744 87.81716657287649 -30.717513744859556 5.455740399179532 18.99078004217433 -14.881968625716775 -0.27924633696407436 -27.62240666558133 0.9700452047047168 -9.92534325222912 -56.911621868211604 -0.61278126768554 1.6846465451863686 63.530814692079744 2.7723824215850423 -4.18934554484304 8.776349708791814 2.4072316430915586 -0.0007992707279948435 0.12342868408178788 0.0006395071293185279 0.8680243896984271 4.140833307327971 2.3627512797398746 3.762255888905819 16.3971623715049 8.324581271187762 0 0 0 -11.151935356710123 8.645137754802885 1.4118956100785114 -47.68254673187147 -6.295623218027163 -47.81509174033229 -73.95634454867736 1.866843838961986 0.7559666158729405 19.697434437448095 70.44099393285067 -4.770365659527761 -9.10629718538281 -7.29286483297944 5.371658801122365 1.4935355317284564 0.6405276714322187 -21.57482077280188 -1.281281483810888e-10 1.793762613445802e-24 1.6042536111691759e-12 2.0534907558912487 -2.1665684136921435 -12.815126704792164 -2.0150343504509176 -0.7501778016347602 -37.01895078165898 1.139979627027678e-10 6.3611093629270335e-15 -1.43444452663829e-12 1.3882540079241332 5.73122398770806 -27.205436236568136 -8.790875118680031 -4.460132218315347 -52.23752633019184 0.000005171787096003275 -0.000002691295807034599 -0.00000456770317490879 5.065418706367583 1.5136279398035197 -25.293859558046993 -3.060735353069328 -1.6344700453701078 -42.58944623124794 -0.000007395308090260151 -0.000007459581146374227 -0.0000022963152906957437 -1.3091816429758205 -3.1211229962213594 -6.027599152545021 1.3733632957208994 -3.9151197146002987 2.692915826032212 -0.000001702556620541409 0.000007672904867303355 -0.0000013851907984277488 14.0459471505365 17.51960375073439 -6.262132710790792 31.216769128838422 18.23668883941376 -1.420332527299173 0 0 0 0 0 0 0 0 0 6.852631720493756 0.9871353936846706 4.487185990524584 65.6003606699787 0.7171214046540532 47.535198518397415 93.07543302977173 1.442657970322154 -0.7257097424866749 -11.793542886543381 37.17625570455121 -1.647037375387774 -7.247142595182206 6.138227713056363 26.382077218151327 -0.7500467401279047 0.03214716746941352 12.91633374857441 3.933694872703174e-10 3.1805546814635168e-15 -4.874754472204794e-12 -5.796681753740631 2.8385902712840454 43.284621857414514 0.6812899792890109 -0.10391088643611258 11.95572964249713 1.215836204053751e-9 -3.180554491887685e-15 -1.6036856771618462e-11 -16.91190657258576 -5.445279327094176 56.90238568517032 5.602076977936109 -2.3988713453373496 51.06735630529047 1.6628260911929426e-9 -3.1805543023118527e-15 -2.179830267765673e-11 -14.876179214690701 -3.0942480875692167 47.42210898660472 1.4108292630559123 -0.7747403764128322 34.4225958639254 -4.3803240153668535e-10 2.0219334966109398e-23 5.2894833502657416e-12 -17.04647456524985 -27.498241581587923 33.01223284322224 -13.044993344035069 1.9675838503187832 -7.298185447110402 0.000003847386213757909 -0.0000011525209592598412 0.000004344285950975823
-0.02373962290585041 -3.3825796674987796 -0.7874181866645813 2.1209557088480717 -15.416974076484978 -7.29203967759804 -34.641007791715495 -54.303969610495464 43.406249079246074 -28.19699817655503 87.83056736951485 -31.11344419652621 5.46789601903637 18.981225631160164 -14.875587487352313 -0.27899179418006775 -27.616031654672376 0.9688729302801793 -10.042854300541151 -56.90893208688047 -0.5557397024430458 1.6802856168538354 63.52038090944312 2.770001997991271 -4.1696459792810625 8.771971547533582 2.419457548690783 -0.0008584080771077869 0.13235394930154287 0.0006896663816109801 0.8696060508985451 4.117462488114721 2.354574576357534 3.755374334759114 16.305002770655925 8.282029565983354 0 0 0 -11.000160340582559 8.596606506949863 0.9562301109345699 -47.77667079137226 -6.073679084804593 -47.506488266060806 -73.81568292735061 1.8792651983351076 0.7467781064323822 18.907794345565016 70.79168017970547 -5.408865132861834 -8.970337434722628 -7.385358012664451 5.0730475199188145 1.494611131721977 0.6411297795952448 -21.59525249469947 -1.281281483810888e-10 1.793762613445802e-24 1.6042536111691759e-12 2.021949147612547 -2.1955327504844164 -13.075168572374315 -2.0126545621774734 -0.7486687343499729 -36.97268921524114 1.139979627027678e-10 6.3611093629270335e-15 -1.43444452663829e-12 1.3454895522435013 5.705924993421633 -27.502558810285866 -8.786496619210572 -4.453710350283588 -52.19964878511049 0.000005171787096003275 -0.000002691295807034599 -0.00000456770317490879 5.030170846742334 1.4979124375132353 -25.480371435674083 -3.060687194869054 -1.634392213581151 -42.58865563645489 -0.000007395308090260151 -0.000007459581146374227 -0.0000022963152906957437 -1.0932340694527687 -3.024617300004685 -6.1453389526491184 1.3595762786733891 -3.8738028344965896 2.6615712891484504 -0.000001702556620541409 0.000007672904867303355 -0.0000013851907984277488 14.057449175540077 17.560140446027656 -6.384562279314733 31.37909834689566 18.311781491295214 -1.4427011572831046 0 0 0 0 0 0 0 0 0 6.961222424735484 1.005121466430921 4.346251152478453 65.9840755028204 0.6756871627325438 47.36298377497252 92.6931531043782 1.416416540254175 -0.7285651525494775 -12.378589982918266 36.695778278935656 -2.6324241619718607 -7.150680753919113 6.097682023409432 26.757114979549474 -0.7535906504973837 0.03343334766266685 13.015643885371713 3.933694872703174e-10 3.1805546814635168e-15 -4.874754472204794e-12 -5.7057500703695965 2.7852450142083303 43.65717766380313 0.7008767068945561 -0.10795083017379463 12.207882398679397 1.215836204053751e-9 -3.180554491887685e-15 -1.6036856771618462e-11 -16.872462777307664 -5.469130021634759 57.12359843611663 5.6198137636714485 -2.4172400710959168 51.265338504851925 1.6628260911929426e-9 -3.1805543023118527e-15 -2.179830267765673e-11 -14.878153645587055 -3.067017112231362 47.53809387920825 1.4168088465406194 -0.7786066186929287 34.514069019460656 -4.3803240153668535e-10 2.0219334966109398e-23 5.2894833502657416e-12 -17.21807882368435 -27.46895426215839 33.395113803644975 -13.47018812890669 2.131268222309266 -7.279201640532821 0.000003847386213757909 -0.0000011525209592598412 0.000004344285950975823
